<?xml version="1.0" encoding="utf-8" ?><svg xmlns="http://www.w3.org/2000/svg" xmlns:xlink="http://www.w3.org/1999/xlink" width="1056" height="992" viewBox="0 0 1056 992"><path fill="#484A76" d="M518.297 277.988C522.788 277.951 529.416 278.294 533.096 280.743C545.628 289.082 558.598 299.222 570.465 308.401L626.209 350.695L710.819 414.47C724.729 424.85 738.64 434.87 752.736 445.537C769.654 458.339 763.169 484.035 743.863 489.144C729.378 492.977 712.356 474.162 700.556 466.441L699.736 465.911C698.867 473 699.144 482.951 699.157 490.286L699.177 525.176L699.32 651.211C699.328 662.752 698.046 672.015 689.545 680.628C686.52 683.693 681.262 686.905 677.101 687.489C658.945 690.036 638.265 689.304 619.936 689.302L524.133 689.29L383.512 689.455C343.359 689.621 343.121 667.636 343.409 634.441L343.499 601.263L343.381 470.446C331.857 477.679 321.351 490.256 308.52 493.821C294.894 496.813 282.344 487.192 279.954 474.125C276.858 457.202 288.766 450.27 300.309 441.305C307.869 435.434 315.776 429.503 323.502 423.612L385.328 376.413L466.383 313.817C479.756 303.51 493.271 293.058 506.793 282.935C510.765 279.961 513.469 278.676 518.297 277.988ZM362.754 453.175L362.572 587.433L362.481 627.526C362.475 630.487 362.566 634.11 362.466 637.008C361.111 676.314 370.483 669.329 402.433 669.762C404.707 658.337 406.138 653.23 410.969 642.231C408.552 638.388 405.827 633.768 403.025 630.28C399.894 632.087 394.677 634.984 392.598 630.543C394.064 626.224 400.597 625.764 400.019 622.42C396.223 621.363 391.829 626.376 388.249 621.807C388.16 620.14 388.156 620.261 388.983 618.803C392.181 616.464 395.766 617.857 397.184 615.576C395.267 612.136 389.164 613.433 387.272 609.193C388.992 605.245 393.724 606.463 397.41 606.779C397.959 601.439 401.421 591.297 401.468 587.803C401.871 557.612 398.339 514.28 435.782 556.87C452.038 553.588 457.5 552.917 473.756 557.306C477.733 551.094 492.208 533.614 501.174 539.478C501.697 539.82 502.504 540.467 502.984 540.877C522.359 521.06 541.423 511.082 569.471 509.002C596.277 509.171 623.545 518.213 642.513 537.592C654.819 550.163 664.582 569.155 649.639 583.938C642.972 590.534 632.694 592.414 624.931 586.573C621.909 591.812 614.641 603.681 612.477 608.693C617.856 625.074 624.489 635.737 625.178 654.417C645.462 641.541 642.276 636.091 638.611 615.237C638.121 612.449 638.875 607.799 641.461 606.145C647.58 602.152 655.077 605.907 658.354 611.51C664.222 621.544 664.19 633.621 661.609 644.617C658.692 656.391 653.816 660.886 645.365 668.74C652.845 668.826 671.399 670.472 675.713 665.66C680.279 660.567 679.238 634.926 679.242 627.657L679.212 511.724C679.184 491.506 678.582 470.588 679.279 450.438C663.205 436.86 641.562 421.484 624.364 408.463L522.373 331.057C512.787 337.923 503.054 345.566 493.783 352.889C450.625 386.98 405.989 419.213 362.754 453.175ZM522.73 586.236C519.169 588.707 514.858 591.877 511.227 594.103L514.184 604.923C518.033 603.889 519.491 603.279 523.395 604.429L524.056 605.124C522.997 608.847 517.38 610.585 514.349 612.822C514.395 613.251 514.441 613.679 514.487 614.108C517.648 617.65 524.523 613.222 524.312 620.509C521.644 624.78 516.167 619.279 513.331 622.427C514.048 625.893 521.277 627.787 520.111 630.692C516.392 631.947 514.984 630.92 511.132 629.637C505.62 632.645 502.613 636.322 498.965 641.42L501.654 649.046C504.598 656.393 506.212 661.63 508.068 669.257C513.357 669.225 519.068 669.085 524.321 669.18C526.272 647.401 528.359 631.345 536.477 610.664C529.558 601.681 525.461 597.366 522.73 586.236Z"/><path fill="#FEFBD6" d="M504.962 550.391C521.363 530.719 549.091 514.508 575.138 515.585C602.389 517.334 630.151 530.776 646.434 553.058C652.57 560.697 652.037 575.808 642.804 580.676C628.465 588.237 624.219 575.387 622.163 564.643C620.891 557.994 615.425 532.275 609.411 530.912C606.877 533.085 609.283 541.611 610.134 544.449C613.274 554.923 615.788 565.594 617.902 576.32C618.262 584.496 616.831 590.506 611.087 596.684C602.475 609.648 606.315 612.394 611.147 626.186C616.282 640.844 619.338 653.558 617.655 669.126C598.944 669.528 580.168 669.323 561.452 669.208C551.532 669.147 541.265 669.556 531.397 669.256C532.077 646.881 535.65 630.934 544.456 610.26C541.568 605.017 539.783 602.607 535.678 598.219C530.629 593.885 527.347 585.157 528.796 578.58C529.654 566.533 532.853 554.325 535.968 542.714C536.991 538.898 539.111 534.78 535.883 531.626C528.93 531.817 524.344 560.946 523.094 567.357C520.826 578.995 518.917 581.813 509.059 588.521C508.928 573.854 508.42 564.793 504.962 550.391Z"/><path fill="#FCE4AB" d="M528.796 578.58C532.613 575.48 534.723 573.567 540.019 573.94C546.905 574.425 552.116 580.647 551.14 587.511C550.483 592.137 547.947 594.541 544.259 596.962C541.801 597.14 537.308 597.041 535.678 598.219C530.629 593.885 527.347 585.157 528.796 578.58Z"/><path fill="#FCE4AB" d="M600.585 574.682C611.693 571.981 610.941 576.061 617.902 576.32C618.262 584.496 616.831 590.506 611.087 596.684C609.53 595.804 604.549 596.017 602.358 595.987C597.075 592.729 596.75 590.551 595.192 584.768C596.679 579.768 597.481 578.569 600.585 574.682Z"/><path fill="#484A76" d="M570.372 575.509C574.918 575.298 584.323 574.935 586.353 579.717C586.147 585.159 581.603 586.855 579.646 590.957C579.038 592.23 580.499 598.728 582.105 600.12C586.72 604.12 590.28 595.598 594.512 595.9C602.808 605.16 586.609 610.082 578.729 606.468L574.307 603.134C570.263 606.258 568.764 606.745 564.063 608.142C559.035 606.471 551.857 604.264 554.153 597.37C558.038 594.725 566.322 605.193 569.661 598.11C574.15 588.584 551.671 581.199 570.372 575.509Z"/><path fill="#484A76" d="M547.259 562.344C555.594 563.006 557.644 568.794 551.715 574.809C542.174 573.614 541.609 569.008 547.259 562.344Z"/><path fill="#484A76" d="M596.265 561.737C598.274 561.139 600.45 561.669 601.959 563.125C603.467 564.58 604.075 566.736 603.549 568.765C603.023 570.795 601.445 572.384 599.419 572.923C596.349 573.741 593.191 571.943 592.329 568.885C591.467 565.827 593.219 562.643 596.265 561.737Z"/><path fill="#FEFBD6" d="M495.957 545.374C502.224 550.021 501.226 582.488 502.817 590.895C503.692 595.519 506.236 601.579 507.859 606.067C505.716 606.553 501.692 607.346 500.392 609.02C501.683 610.751 504.826 610.957 507.426 613.051L507.446 613.777C505.21 615.821 501.129 614.911 499.755 617.64C500.921 620.372 503.701 620.836 506.312 621.694C499.647 627.972 498.432 631.687 490.24 637.516C493.998 648.263 497.63 658.161 500.433 669.219C478.47 669.879 456.496 669.873 434.526 669.866C426.289 669.863 418.501 669.778 410.305 668.97C411.202 662.796 412.583 658.487 414.528 652.649C416.244 647.769 417.715 644.219 419.779 639.521C413.33 635.023 411.116 630.555 407.881 623.608C410.13 622.601 416.341 619.886 416.111 617.166C412.91 616.466 407.433 618.902 405.426 617.174L405.575 615.48C407.791 611.654 411.11 613.133 414.764 611.059C412.061 608.029 408.179 608.362 404.478 608.343C404.901 600.083 406.832 594.742 409.767 587.203C408.372 580.94 405.39 547.894 413.418 546.624C419.189 548.317 429.106 559.229 433.768 563.881C452.443 559.363 456.902 560.271 475.868 563.753C482.651 556.97 488.222 551.075 495.957 545.374Z"/><path fill="#484A76" d="M450.482 605.966C454.387 605.692 461.076 605.191 463.878 608.345C464.744 613.033 459.274 614.583 458.135 619.105C458.392 620.22 458.694 620.371 459.506 621.089C465.806 626.653 466.513 617.289 470.516 616.727C476.621 622.911 468.088 628.703 461.651 629.367C459.993 628.87 457.977 627.868 456.353 627.139C450.914 628.519 438.538 631.682 439.384 620.581C439.491 619.175 440.533 618.353 441.648 617.648C445.008 618.311 446.749 624.32 450.652 621.603C451.574 619.823 451.601 619.909 451.765 617.945C450.572 613.809 446.791 613.639 447.153 608.959C448.167 607.158 448.62 607.072 450.482 605.966Z"/><path fill="#484A76" d="M480.42 595.306C488.238 596.548 488.264 601.791 483.746 607.018C474.026 606.203 476.03 601.066 480.42 595.306Z"/><path fill="#484A76" d="M429.682 597.818C431.324 597.296 433.12 597.704 434.375 598.884C435.631 600.064 436.148 601.832 435.728 603.503C435.307 605.174 434.015 606.486 432.35 606.932C429.858 607.599 427.288 606.155 426.563 603.679C425.838 601.203 427.223 598.6 429.682 597.818Z"/><path fill="#FEFBD6" d="M648.159 611.265C651.083 612.555 652.709 613.933 654.144 616.911C657.94 624.791 656.875 637.573 654.104 645.58C649.625 658.518 641.11 662.886 629.74 668.376C628.168 668.905 627.081 669.391 625.731 668.375C625.448 664.473 637.402 656.497 640.416 653.012C647.514 645.299 648.967 636.099 647.09 626.057C645.94 619.903 643.51 615.929 648.159 611.265Z"/><path fill="#484A76" d="M791.67 568.247C806.559 567.505 803.78 583.242 800.672 592.634C803.388 591.022 807.755 588.802 810.855 588.626C818.2 588.209 817.838 594.263 817.736 599.232C818.39 598.625 819.046 598.049 819.765 597.517C822.221 595.702 825.614 594.25 828.732 594.825C830.706 595.189 832.362 596.442 833.463 598.091C841.159 609.613 833.258 649.491 830.798 662.865C819.44 724.605 789.263 789.479 737.627 827.482C719.439 840.868 698.795 850.185 680.29 862.985C650.169 883.821 638.285 909.712 637.55 945.914C637.396 953.516 639.473 962.452 637.882 969.807C637.39 972.084 636.272 973.683 634.264 974.846C622.201 981.828 563.102 984.93 548.792 981.181C546.351 980.541 544.217 979.67 543.009 977.347C539.509 970.62 538.932 960.274 537.724 952.746C531.517 914.075 530.176 879.473 541.892 841.653C552.943 802.263 587.727 762.781 624.378 745.557C636.818 739.711 651.732 735.491 663.134 727.788C681.896 715.113 698.009 697.548 712.96 680.702C721.027 672.882 741.582 639.356 756.26 651.58C794.016 683.024 695.052 758.288 697.381 774.951L698.365 775.443C704.673 775.195 711.642 769.593 716.477 765.699C738.749 747.765 752.302 721.333 761.831 694.889C764.287 688.075 767.536 680.459 768.083 673.203C767.853 668.898 766.071 663.157 764.446 659.204C755.772 638.103 752.239 621.201 762.536 599.356C768.682 586.317 777.185 573.848 791.67 568.247Z"/><path fill="#FAF9FA" d="M824.058 599.661C828.835 599.572 829.168 599.653 832.412 603.305C832.477 604.229 832.584 605.405 832.536 606.337C828.393 686.291 800.007 775.598 733.174 825.084C708.334 842.805 679.631 852.593 658.02 874.895C630.854 902.931 632.038 935.145 632.702 971.052C607.046 977 574.119 979.431 547.929 976.149C547.549 975.249 546.836 973.617 546.617 972.658C537.35 931.987 533.396 888.458 545.532 847.924C549.306 835.321 553.981 824.761 560.013 813.12C572.031 790.272 601.244 761.686 624.675 751.202C643.517 742.771 661.41 737.262 677.806 723.362C691.965 711.358 703.772 698.236 716.541 684.681C724.966 675.738 732.954 664.002 742.057 656.434C744.14 654.861 748.667 653.264 751.255 654.177C761.59 657.822 760.827 672.996 757.919 681.082C751.006 700.306 737.909 714.786 724.808 729.939C712.985 743.614 697.553 756.337 691.937 774.067C691.31 776.14 691.668 777.714 692.819 779.402C697.44 782.597 703.866 779.492 708.369 777.276C732.217 765.541 744.081 740.505 761.675 722.117C771.517 711.831 785.568 704.37 793.72 692.238C798.605 684.867 801.061 672.549 803.173 663.545C807.246 646.172 810.043 625.939 816.508 609.249C817.916 605.613 821.181 602.122 824.058 599.661Z"/><path fill="#FAF9FA" d="M811.484 593.393L812.28 593.74C814.398 598.231 805.942 625.025 804.371 631.533C800.087 649.274 797.965 674.51 787.833 689.811C782.071 698.513 766.57 709.397 758.635 717.354L758.349 717.415L757.963 716.991C759.392 712.854 762.839 706.681 764.76 702.144C768.436 694.196 770.237 685.206 773.164 677.108C782.342 651.717 783.548 605.567 811.484 593.393Z"/><path fill="#FAF9FA" d="M793.41 572.268C795.545 572.531 796.599 572.956 798.039 574.449C802.169 585.449 784.505 611.264 782.274 622.737C781.672 624.437 781.16 626.29 780.562 627.978C776.423 639.668 773.971 651.695 770.663 663.616L770.098 663.867L769.429 662.419C768.149 656.71 766.319 650.765 764.339 645.257C755.105 619.562 768.592 584.117 793.41 572.268Z"/><path fill="#484A76" d="M247.857 568.236C253.989 567.975 258.47 569.606 263.156 573.519C270.728 579.843 277.093 588.907 281.374 597.577C291.8 618.692 288.97 635.672 282.491 657.265C280.656 663.38 278.946 673.787 279.745 680.234C280.698 687.916 284.171 696.693 287.077 703.959C296.229 726.845 308.445 749.941 328.153 765.446C331.908 768.401 341.946 775.48 346.853 774.915L347.532 774.057C347.339 771.2 345.861 769.078 344.28 766.761C325.365 739.039 297.532 717.036 284.721 685.358C281.476 677.333 279.816 668.305 283.506 660.128C288.723 648.568 301.115 648.355 309.875 656.01C321.317 665.94 329.665 678.883 339.745 690.084C355.544 707.639 373.143 723.979 394.483 734.539C404.75 739.662 415.2 744.133 425.452 749.247C466.818 769.879 489.244 802.12 503.355 844.685C505.184 851.496 506.976 858.277 508.209 865.225C513.751 896.451 511.078 928.406 506.684 959.584C505.841 965.563 505.609 975.029 501.95 979.882C500.379 981.965 497.977 982.538 495.513 982.918C483.106 984.829 416.697 981.521 408.383 973.47C404.17 969.391 406.136 947.041 406.015 940.64C405.915 935.327 405.575 929.982 404.914 924.709C403.722 915.206 401.353 905.645 396.89 897.122C379.05 863.056 330.796 845.42 300.867 822.219C287.545 811.892 275.261 799.822 265.034 786.408C234.77 746.715 217.701 692.327 211.576 643.299C210.347 633.463 206.338 606.394 212.782 598.714C214.148 597.085 215.931 596.179 218.059 596.088C222.416 595.901 225.251 598.214 228.255 600.964C228.198 584.796 236.174 587.995 246.011 595.777C242.846 587.44 237.357 573.302 247.857 568.236Z"/><path fill="#FAF9FA" d="M218.625 600.559C218.792 600.557 218.959 600.541 219.126 600.551C223.01 600.766 225.663 603.578 227.535 606.719C236.749 622.181 239.683 660.148 245.857 679.202C247.571 684.493 249.919 689.857 253.461 694.193C262.822 705.653 275.961 712.864 285.996 723.566C297.285 735.605 305.615 750.162 317.072 762.131C323.977 769.345 336.718 779.926 347.404 779.761C348.919 779.738 350.412 779.249 351.345 777.979C357.79 769.202 322.003 731.578 315.946 724.45C310.461 717.996 305.016 711.45 300.251 704.436C293.797 694.937 287.3 683.049 286.384 671.366C285.89 665.067 288.02 661.089 291.973 656.479L299.817 655.615C310.052 660.615 317.931 671.347 324.928 680.043C335.38 693.645 347.089 705.665 359.752 717.012C381.471 736.475 404.944 744.976 430.541 757.151C451.79 767.258 472.21 792.386 484.728 812.583C513.153 862.816 508.539 923.56 497.947 977.799C490.225 977.395 482.24 977.794 474.302 977.556C462.389 977.198 450.706 976.974 438.673 975.513C432.75 974.793 417.962 973.572 412.992 970.185C412.406 969.786 411.947 966.811 411.916 965.909C411.454 952.679 412.427 939.407 410.352 926.267C408.114 912.089 403.529 895.965 394.843 884.273C376.96 860.2 348.422 847.545 323.768 832.177C305.37 820.709 285.414 804.784 272.092 787.549C239.908 745.911 221.654 689.964 216.011 638.116C214.993 628.762 213.239 617.754 213.878 608.309C214.135 604.506 215.74 602.644 218.625 600.559Z"/><path fill="#FAF9FA" d="M232.571 593.793C253.399 595.899 260.567 629.398 264.741 645.279C269.976 665.19 274.051 686.062 282.455 704.855C284.33 709.049 286.431 712.995 287.717 717.442C285.677 715.917 278.667 708.944 276.592 706.954C271.782 702.343 259.944 692.871 256.808 687.639C249.102 674.785 246.288 655.027 242.703 640.475C238.766 624.493 235.018 609.916 232.571 593.793Z"/><path fill="#FAF9FA" d="M248.917 572.18C267.538 573.466 280.084 601.828 283.224 617.744C286.077 632.2 280.016 648.087 277 662.314L275.9 667.573C272.516 650.789 268.145 634.102 262.095 618.049C257.51 605.882 241.883 584.958 248.917 572.18Z"/><path fill="#484A76" d="M193.174 165.207C217.443 163.003 244.959 171.32 264.046 186.208C283.128 201.092 295.402 230.117 259.227 232.439C259.011 237.461 258.926 242.316 258.033 247.279C251.584 283.103 225.017 302.527 189.741 302.527C161.238 300.257 147.55 288.601 134.929 263.554C128.804 265.793 117.342 270.143 111.682 264.938C92.9812 247.739 113.669 213.497 125.584 198.68C141.228 179.226 168.769 167.43 193.174 165.207Z"/><path fill="#FAF9FA" d="M196.202 171.387C225.101 169.502 236.645 183.055 247.002 208.387C250.352 216.58 252.652 225.053 252.826 233.956C253.301 258.306 238.881 282.119 216.249 291.686C207.606 295.335 199.609 295.885 190.437 295.983C178.547 295.368 167.095 291.831 158.096 283.882C136.64 264.931 122.509 216.913 143.306 193.231C156.338 178.392 177.367 172.828 196.202 171.387Z"/><path fill="#484A76" d="M197.252 235.78C201.779 235.351 208.381 236.22 208.333 242.15C208.291 247.206 205.2 250.38 201.954 253.776C203.029 267.109 208.225 272.775 220.087 264.084C220.172 260.951 219.645 255.52 223.679 255.137C229.35 258.54 226.658 270.333 220.99 273.374C214.062 277.092 207.65 274.423 200.302 272.876C199.407 274.718 199.116 275.119 197.879 276.777C179.377 291.694 168.497 272.272 174.748 266.305L175.97 266.345C178.05 267.872 180.29 271.723 182.028 274.063C196.265 281.395 195.456 262.964 193.635 254.345C174.936 251.814 179.562 238.272 197.252 235.78Z"/><path fill="#FCE4AB" d="M232.492 231.269C238.149 230.597 243.304 234.576 244.089 240.218C244.873 245.861 240.998 251.094 235.372 251.991C231.631 252.587 227.86 251.115 225.513 248.143C223.165 245.17 222.608 241.16 224.056 237.66C225.503 234.16 228.73 231.715 232.492 231.269Z"/><path fill="#FCE4AB" d="M160.004 247.735C163.612 246.809 167.439 247.903 170.012 250.597C172.585 253.291 173.503 257.164 172.411 260.725C171.32 264.287 168.39 266.981 164.749 267.771C159.265 268.961 153.838 265.542 152.545 260.081C151.252 254.621 154.569 249.131 160.004 247.735Z"/><path fill="#484A76" d="M212.832 214.876C221.266 215.672 223.291 220.853 217.591 227.129C207.792 228.593 207.711 221.105 212.832 214.876Z"/><path fill="#484A76" d="M163.495 227.217C171.462 227.701 174.041 233.643 168.166 239.624C158.155 240.576 159.139 233.359 163.495 227.217Z"/><path fill="#484A76" d="M113.583 445.092C117.477 444.787 121.676 445.516 124.489 448.592C134.983 460.073 134.52 479.575 134.43 494.192C134.388 501.013 132.893 508.782 133.578 515.734C137.855 531.953 151.403 542.835 151.549 560.9C151.945 609.899 64.7833 626.242 35.4738 596.989C24.1581 584.088 23.8741 568.452 27.8063 552.422C29.2989 546.337 31.7114 539.547 31.0136 533.239C30.3311 527.069 27.6013 521.225 25.5701 515.417C20.278 501.073 16.7535 485.481 18.4782 470.136C19.2115 463.612 24.5222 454.936 32.2378 457.488C47.3339 462.48 58.0776 475.408 66.0281 488.591C74.5164 486.473 81.5624 485.438 90.2043 484.526C91.7099 469.966 98.5722 450.606 113.583 445.092Z"/><path fill="#FAF9FA" d="M114.662 450.561C117.897 450.426 119.958 450.974 121.852 453.849C130.839 467.489 128.267 486.38 127.937 501.931C127.8 508.363 126.813 514.728 128.97 520.953C134.201 535.25 147.434 550.38 144.502 566.63C138.687 598.864 92.1121 608.921 64.9673 604.205C52.1961 601.986 42.9987 597.608 35.5619 587.219C27.0937 572.302 33.6206 555.174 36.8058 539.86C38.9367 529.615 32.9216 519.159 30.0238 509.708C13.4018 455.496 32.0346 447.164 63.8523 495.542C74.555 491.48 83.3081 492.406 94.3307 490.209C95.6034 486.887 96.4986 481.892 97.3429 478.347C100.306 465.902 104.274 458.002 114.662 450.561Z"/><path fill="#FCE4AB" d="M48.1665 547.807C58.0404 546.122 67.4169 552.742 69.1338 562.61C70.8507 572.477 64.261 581.874 54.3981 583.623C44.4904 585.379 35.0406 578.754 33.3158 568.841C31.5911 558.928 38.2477 549.5 48.1665 547.807Z"/><path fill="#F6C989" d="M49.5139 558.893C60.7056 558.138 65.6932 566.26 54.3003 573.016C43.8222 574.038 39.0279 565.537 49.5139 558.893Z"/><path fill="#FCE4AB" d="M120.645 539.03C130.459 536.911 140.126 543.174 142.203 552.996C144.281 562.819 137.977 572.458 128.145 574.494C118.372 576.517 108.802 570.259 106.737 560.495C104.672 550.732 110.89 541.136 120.645 539.03Z"/><path fill="#F6C989" d="M120.217 548.563C131.318 548.32 134.107 556.416 123.753 562.36C112.793 561.691 110.249 554.348 120.217 548.563Z"/><path fill="#484A76" d="M86.3784 548.702C89.6065 548.434 91.8433 547.82 94.427 549.778C97.0902 554.075 91.2592 560.381 94.4243 565.405L95.4218 565.533C98.4688 563.974 101.627 559 104.126 559.047C106.638 561.919 104.814 566.994 102.097 569.462C98.0194 573.166 92.7218 570.327 89.2262 571.262C86.7543 572.558 85.2631 573.008 82.659 573.867L76.0695 572.423C73.62 569.942 69.5155 566.038 73.8277 562.814C77.5358 563.077 78.6807 568.509 82.8761 566.689C83.9962 565.2 84.0892 565.238 84.5145 563.347C83.8339 558.452 78.4284 557.225 79.3816 552.448C81.3299 549.953 83.3594 549.651 86.3784 548.702Z"/><path fill="#EAB197" d="M32.5708 473.912C39.5786 475.05 50.6157 489.88 53.6081 495.898C51.5616 497.735 48.4975 499.705 46.1568 501.313C43.1517 503.447 40.3731 506.111 37.6402 508.605C32.9258 498.007 30.2976 485.432 32.5708 473.912Z"/><path fill="#EAB197" d="M114.524 461.343C119.399 464.288 123.544 491.395 118.364 494.922C116.007 494.885 114.012 493.966 111.763 493.161C108.45 492.055 105.39 490.638 102.197 489.228C104.333 477.624 106.81 470.299 114.524 461.343Z"/><path fill="#484A76" d="M61.6397 536.124C69.9928 537.214 73.1442 543.556 65.9529 549.432C56.5523 550.632 55.5324 542.322 61.6397 536.124Z"/><path fill="#484A76" d="M104.921 530.382C113.465 531.842 114.579 537.074 109.16 543.339C99.7241 541.449 98.5715 537.666 104.921 530.382Z"/><path fill="#484A76" d="M836.65 144.42C851.384 144.158 855.94 172.949 857.975 183.932C868.41 186.151 875.329 189.433 884.027 195.374C897.031 189.917 913.921 179.083 927.969 186.902C938.513 204.748 914.575 229.832 910.869 246.581C909.363 253.383 916.446 256.021 916.009 259.897C913.436 262.319 907.44 260.724 907.167 265.273C906.85 270.571 911.831 270.355 914.808 273.766C915.368 275.916 915.36 274.853 914.71 277.072C911.231 279.763 906.852 275.925 902.672 277.585C900.541 280.83 905.002 286.608 904.33 291.212L903.512 291.683C900.67 290.643 899.23 288.11 897.308 285.635C893.888 288.07 890.209 291.128 886.686 293.717C876.438 300.028 868.61 302.352 856.45 301.775C835.969 300.804 813.766 290.864 800.11 275.455C789.48 263.459 784.983 251.393 785.768 235.516C781.886 235.445 779.053 236.031 776.65 232.696C775.862 228.5 782.844 227.386 786.261 226.235C787.38 225.017 787.466 224.114 787.698 222.484C788.415 217.42 782.344 220.912 779.344 216.987C778.914 215.298 779.218 214.848 779.76 213.201C782.622 210.39 786.174 213.826 791.281 213.32C792.715 212.022 802.359 199.056 803.024 197.183C808.574 181.569 818.405 149.09 836.65 144.42Z"/><path fill="#FAF9FA" d="M835.989 150.543C848.031 150.701 850.354 179.522 852.022 189.066C867.191 193.297 872.265 195.405 885.895 203.772C893.082 197.843 910.238 189.341 918.846 190.265C935.631 192.066 910.685 228.402 908.352 234.52C905.829 241.139 905.197 247.953 904.647 254.076C901.771 254.058 893.226 253.389 893.96 257.98C896.383 260.422 898.831 260.328 902.294 260.826L899.653 266.945C897.502 265.129 892.236 261.018 889.442 263.107C889.39 267.118 896.436 271.131 896.74 274.728L895.831 275.675C892.944 275.644 889.441 270.105 886.834 271.171C886.51 274.216 888.211 275.423 890.117 277.528C891.383 280.197 890.239 282.68 888.208 284.596C860.002 311.208 800.325 284.246 793.146 248.943C792.21 244.339 792.036 239.023 791.966 234.35C795.054 234.212 797.487 234.68 799.584 232.227C799.965 230.364 799.92 230.437 799.564 228.538C797.305 226.554 794.422 229.407 793.125 226.461C794.97 220.17 799.694 224.926 804.138 223.502C804.995 222.13 804.729 222.894 804.664 221.054C803.498 219.346 801.009 218.709 798.816 217.43C796.76 212.254 810.249 203.77 811.329 196.615C813.39 182.95 823.653 157.419 835.989 150.543Z"/><path fill="#484A76" d="M840.891 235.455C844.319 235.961 856.732 239.062 856.913 244.442C857.098 249.93 850.749 248.341 848.029 251.212C845.101 261.599 856.895 254.282 860.07 256.07C862.05 263.397 853.364 263.561 848.742 263.457C847.188 262.917 845.152 262.328 844.237 261.089C841.268 256.719 837.017 258.194 832.662 256.806C828.47 255.47 826.383 246.895 827.966 243.327C831.408 243.035 833.151 251.539 838.936 250.39C843.78 245.54 836.538 243.722 840.891 235.455Z"/><path fill="#EAB197" d="M836.25 160.071C840.583 161.479 844.269 179.674 842.737 183.959C840.601 185.753 833.348 185.164 830.221 185.122C827.972 185.117 827.239 185.267 825.205 184.473C820.042 178.889 832.592 164.447 836.25 160.071Z"/><path fill="#EAB197" d="M913.608 198.185C915.135 197.959 915.547 198.038 917.066 198.126L917.517 198.667C916.367 203.318 910.379 223.424 904.478 222.225L903.43 220.547C893.447 203.911 891.64 201.011 913.608 198.185Z"/><path fill="#484A76" d="M826.973 216.279C830.077 215.312 833.376 217.052 834.332 220.159C835.289 223.267 833.539 226.56 830.428 227.506C827.331 228.448 824.056 226.708 823.104 223.614C822.152 220.521 823.882 217.24 826.973 216.279Z"/><path fill="#484A76" d="M872.552 237.578C880.568 237.774 883.37 243.709 877.837 249.875C867.517 250.356 868.609 244.269 872.552 237.578Z"/><path fill="#EAB197" d="M810.105 226.778C816.451 227.601 822.382 231.495 816.313 237.643C805.863 238.66 806.319 234.597 810.105 226.778Z"/><path fill="#EAB197" d="M873.34 256.623C877.082 256.987 881.624 257.487 883.09 261.402C883.162 263.394 882.729 263.71 881.567 265.482C874.829 265.855 869.402 264.354 873.34 256.623Z"/><path fill="#484A76" d="M928.999 469.842C948.315 467.886 963.404 477.982 971.062 496.145C974.361 503.971 973.894 516.154 979.347 523.575C989.738 537.716 1003.7 552.34 1016.47 564.409C1018.63 561.182 1023.12 554.351 1026.84 552.798C1031.84 550.712 1033.28 556.06 1034.56 559.559C1046.35 561.585 1037.39 564.446 1044.38 570.827C1045.8 572.125 1045.78 571.904 1046.74 573.612C1046.94 577.217 1044.35 579.063 1041.22 580.477C1032.66 584.357 1023.08 586.124 1013.98 588.388C1004.2 590.821 994.475 593.445 984.562 595.268C981.984 595.738 980.055 596.161 977.627 597.183C977.526 601.432 977.457 603.796 975.905 607.711C971.745 612.477 964.918 612.515 961.519 606.743C962.144 602.419 968.451 605.248 971.166 600.068C970.774 595.231 961.852 595.534 957.951 595.407C956.819 601.745 954.698 610.498 946.898 611.051C943.651 611.281 940.441 609.649 940.316 606.073C942.014 602.376 945.436 604.199 948.413 602.41C949.947 601.488 950.613 600.191 950.962 598.493C951.135 597.647 951.441 596.078 950.784 595.362C949.613 594.087 934.907 590.25 932.024 588.995C925.064 585.965 918.744 581.258 913.986 575.333C894.677 551.289 908.948 525.756 902.498 514.708C898.764 508.313 889.833 507.498 885.741 501.634C885.039 494.827 898.459 492.409 903.6 491.059C908.575 477.639 915.092 472.518 928.999 469.842Z"/><path fill="#FEFBD6" d="M929.425 476.53C934.145 476.065 936.873 476.205 941.53 477.235C948.056 478.678 956.829 484.682 960.747 490.031C969.038 501.348 965.715 515.188 974.181 527.507C982.467 539.564 991.918 548.874 1002.15 559.259C1009.05 566.26 1015.27 571.951 1020.4 580.432C1011.6 580.667 1002.51 583.89 994.079 586.423C972.934 591.364 953.348 591.211 933.177 581.787C922.773 576.926 916.208 569.561 912.436 558.834C907.822 545.716 910.855 536.236 911.458 523.064C911.426 519.832 909.912 516.693 909.134 513.589C904.684 495.836 912.539 481.965 929.425 476.53Z"/><path fill="#484A76" d="M948.654 525.533C952.97 525.167 962.219 524.43 963.736 529.603C961.585 534.633 948.097 530.817 943.736 534.835C934.644 543.216 938.254 556.699 945.087 564.776C956.349 578.089 969.205 574.691 983.372 576.219C984.803 577.505 985.417 578.538 985.423 580.477C984.617 581.861 983.835 582.646 982.113 582.943C960.741 586.707 931.962 572.969 931.796 548.631C931.715 536.794 936.556 528.243 948.654 525.533Z"/><path fill="#484A76" d="M926.957 492.264C935.9 493.218 934.922 498.646 929.821 503.896C921.027 502.928 921.802 497.533 926.957 492.264Z"/><path fill="#FAF9FA" d="M895.777 498.324C897.964 498.378 899.137 498.185 900.99 499.19C902.432 500.71 902.41 501.848 902.854 504.004C897.529 504.675 897.401 502.789 895.777 498.324Z"/><path fill="#484A76" d="M945.451 641.429C947.418 641.361 949.496 641.379 951.356 642.089C953.247 642.811 954.903 644.146 955.689 646.048C959.514 655.314 939.135 700.222 934.774 709.726C883.866 820.691 790.841 902.537 676.885 944.873C663.078 946.933 665.444 931.192 670.896 929.556C684.826 925.375 700.012 918.178 713.029 912.007C814.533 863.888 895.637 775.213 933.729 669.478C936.516 661.741 939.948 646.648 945.451 641.429Z"/><path fill="#484A76" d="M90.1916 638.385L90.6755 638.375C98.9485 638.28 99.5236 642.688 101.605 649.614C139.427 775.479 237.093 879.089 359.215 926.82C367.93 930.226 386.592 935.534 371.327 946.891C360.568 948.293 303.779 918.833 292.464 912.416C196.26 857.854 123.346 767.584 88.7732 662.664C86.0884 654.517 81.3413 644.417 90.1916 638.385Z"/><path fill="#484A76" d="M631.113 83.601C638.827 83.8685 651.518 87.9611 659.119 90.1551C698.378 101.529 736.359 118.393 770.778 140.48C778.33 145.326 792.047 154.59 778.963 162.085C772.689 162.122 761.259 153.781 755.433 150.111C720.857 128.333 682.766 113.092 643.373 102.546C637.856 101.069 627.847 99.5349 625.799 93.411C624.423 88.8531 627.624 85.9008 631.113 83.601Z"/><path fill="#484A76" d="M414.857 81.5641C420.689 81.459 426.166 85.3287 424.092 91.6538C422.592 96.2296 416.647 97.2879 412.476 98.3649C370.168 109.289 329.684 127.144 292.513 150.037C286.375 153.817 280.465 158.945 273.753 161.835C271.889 161.921 268.765 161.689 267.315 160.525C254.377 149.731 278.552 139.924 285.472 135.647C326.267 110.428 368.547 93.5646 414.857 81.5641Z"/><path fill="#484A76" d="M917.73 314.154C920.926 313.657 924.302 313.284 926.428 316.228C930.519 321.894 933.355 328.636 936.291 334.976C949.944 364.461 960.295 395.418 968.839 426.733C969.922 430.702 971.106 435.411 970.887 439.528C970.779 441.554 967.386 443.889 965.844 445.069C961.38 445.743 959.316 444.277 955.986 441.567C954.816 438.329 953.999 435.041 953.241 431.699C945.216 396.316 931.991 362.365 916.15 329.798C914.734 326.888 913.091 322.468 913.259 319.234C913.376 316.995 916.083 315.348 917.73 314.154Z"/><path fill="#484A76" d="M121.175 313.051C135.078 312.142 132.103 321.344 128.157 329.975C113.637 361.73 99.0178 393.524 91.0807 427.696C89.838 433.047 88.674 437.531 83.8688 440.639C78.1425 442.138 72.5315 439.303 73.8436 433.15C80.7693 400.675 93.0934 368.704 106.75 338.495C110.467 330.272 114.577 318.581 121.175 313.051Z"/><path fill="#484A76" d="M467.769 0L474.163 0C494.29 7.73176 497.255 17.3316 510.139 31.1776C521.528 29.0024 534.144 29.4222 545.455 31.8812C553.951 17.051 560.716 7.55626 576.258 0L583.082 0C600.482 10.5364 594.708 47.1373 591.358 64.1706C602.12 90.6682 603.182 115.362 578.294 134.658C561.058 148.022 536.165 152.043 514.71 149.867C479.028 146.247 449.762 121.265 458.339 83.037C463.091 69.5926 462.542 64.509 459.666 50.9229C456.836 37.5523 455.409 9.30715 467.769 0Z"/><path fill="#FAF9FA" d="M579.302 6.25426C595.509 7.89516 586.118 54.2378 585.56 65.2313L585.518 66.1328C594.897 83.3103 596.05 105.446 583.265 121.243C557.571 152.991 489.254 152.36 467.916 116.26C460.168 100.639 462.769 80.7735 469.848 65.4131C465.319 49.0685 463.695 37.6317 464.715 20.5885C466.801 -14.2917 499.315 27.8536 505.954 38.4355C519.734 34.5831 535.822 35.6099 549.611 38.914C554.732 25.8213 565.25 10.6741 579.302 6.25426Z"/><path fill="#FCE4AB" d="M501.187 88.6277L500.732 88.8004C499.895 90.6137 503.389 96.4058 501.961 102.369C499.565 112.375 489.546 119.229 479.227 116.671C465.622 113.299 462.168 88.511 476.289 82.6163C482.727 79.9289 488.191 81.0769 494.431 83.2135C496.841 86.0393 497.659 87.5559 501.187 88.6277Z"/><path fill="#F6C989" d="M484.076 92.2957C494.628 91.8094 500.565 100.234 489.282 106.664C478.45 107.256 473.318 99.1817 484.076 92.2957Z"/><path fill="#FCE4AB" d="M562.664 83.4997C564.479 82.7617 568.751 80.8344 570.505 80.6111C591.028 77.8828 598.307 110.392 578.089 116.187C567.33 119.271 558.71 113.202 555.687 102.563C554.232 97.4399 558.265 88.9192 557.394 87.8244L556.936 87.723C559.736 86.5921 560.926 85.9593 562.664 83.4997Z"/><path fill="#F6C989" d="M568.877 91.7583C580.809 92.2908 582.221 100.035 572.321 106.154C560.94 106.625 557.521 97.4824 568.877 91.7583Z"/><path fill="#484A76" d="M522.417 107.104C528.259 99.7198 519.247 97.9401 520.373 92.3149C523.011 88.9472 533.303 88.8858 537.029 91.4723C539.822 96.7746 532.729 97.4923 532.615 104.704C533.676 106.681 533.691 106.852 535.468 108.111C540.728 108.981 542.875 102.838 546.733 102.062C547.552 102.795 547.329 102.648 547.364 103.823C547.558 110.354 543.82 112.476 538.521 114.995C535.838 114.776 533.921 114.805 531.69 113.12C530.801 112.449 530.051 112.071 528.982 112.5C523.118 114.855 513.805 118.074 511.851 109.177C511.452 107.361 511.153 104.822 512.164 103.131L513.228 102.803C516.506 104.827 515.801 107.853 520.233 108.274L522.417 107.104Z"/><path fill="#EAB197" d="M575.148 17.2312C576.727 17.1631 578.142 16.8613 579.391 17.6769C582.892 23.7991 580.767 42.4163 579.651 49.5693C576.27 47.9835 572.832 46.0749 569.523 44.3072L559.29 38.5421C562.773 30.7304 568.029 22.1957 575.148 17.2312Z"/><path fill="#EAB197" d="M473.162 17.2003C481.564 20.2339 489.09 30.6016 494.661 37.4376L487.271 41.9301C484.182 43.9222 479.303 47.927 475.959 48.7891C469.024 46.7685 471.919 22.8114 473.162 17.2003Z"/><path fill="#484A76" d="M494.431 83.2135C495.059 63.9203 518.627 81.7074 501.187 88.6277C497.659 87.5559 496.841 86.0393 494.431 83.2135Z"/><path fill="#484A76" d="M556.936 87.723C545.385 86.3687 548.588 67.923 561.701 76.9692L562.664 83.4997C560.926 85.9593 559.736 86.5921 556.936 87.723Z"/><path fill="#2B2C5C" d="M461.851 49.718C465.179 51.8932 467.004 64.6859 466.983 68.648L465.737 68.1966C463.518 64.356 462.427 54.3929 461.851 49.718Z"/></svg>